<?xml version="1.0" standalone="no"?>
<!DOCTYPE svg PUBLIC "-//W3C//DTD SVG 20010904//EN"
 "http://www.w3.org/TR/2001/REC-SVG-20010904/DTD/svg10.dtd">
<svg version="1.0" xmlns="http://www.w3.org/2000/svg"
 width="576.000000pt" height="576.000000pt" viewBox="0 0 576.000000 576.000000"
 preserveAspectRatio="xMidYMid meet">
<metadata>
Created by potrace 1.11, written by Peter Selinger 2001-2013
</metadata>
<g transform="translate(0.000000,576.000000) scale(0.100000,-0.100000)"
fill="#000000" stroke="none">
<path d="M4895 5348 c-111 -60 -183 -242 -231 -578 -13 -88 -18 -220 -21 -560
l-5 -444 -86 -216 -86 -215 -1 -1055 -1 -1055 43 -46 c24 -25 43 -51 43 -58 0
-6 -17 -11 -40 -11 l-40 0 0 -78 0 -78 53 -52 53 -52 364 0 364 0 58 57 58 57
0 73 0 73 -45 0 c-30 0 -45 4 -45 13 0 7 20 33 45 57 l45 44 0 1053 0 1053
-85 212 -85 213 0 295 c0 610 -39 936 -136 1150 -59 130 -146 189 -219 148z
m85 -98 c55 -55 115 -229 144 -420 15 -96 36 -321 36 -386 l0 -34 -217 0 -216
0 6 138 c11 244 57 482 117 611 51 107 88 133 130 91z m180 -1216 l0 -285 85
-215 85 -215 0 -1032 0 -1033 -40 -39 c-40 -39 -40 -39 -40 -117 l0 -78 40 0
c47 0 51 -13 13 -52 l-27 -28 -330 0 -330 0 -33 32 c-18 18 -33 35 -33 39 0 4
19 9 43 11 l42 3 3 75 3 75 -46 45 -45 44 0 1023 0 1023 90 225 90 225 0 280
0 280 215 0 215 0 0 -286z"/>
<path d="M3820 3523 c-164 -60 -292 -356 -307 -710 l-6 -143 -43 0 -44 0 0
-723 0 -723 40 -39 c22 -21 40 -47 40 -57 0 -14 -8 -18 -40 -18 l-40 0 0 -72
0 -72 57 -58 57 -58 366 0 366 0 52 53 52 53 0 77 0 77 -40 0 c-26 0 -40 5
-40 13 0 7 18 31 40 52 l40 39 0 728 0 728 -39 0 -39 0 -6 88 c-23 339 -86
548 -207 686 -73 83 -169 112 -259 79z m136 -89 c128 -61 244 -398 244 -710
l0 -54 -302 2 -303 3 3 105 c8 298 104 572 226 645 48 29 85 31 132 9z m334
-1512 l0 -658 -45 -44 -45 -44 0 -78 0 -78 45 0 c25 0 45 -3 45 -7 0 -4 -14
-22 -32 -40 l-32 -33 -331 0 -331 0 -27 28 c-38 39 -34 52 13 52 l40 0 0 78
c0 78 0 78 -40 117 l-40 39 0 663 0 663 390 0 390 0 0 -658z"/>
<path d="M2775 3265 c-33 -7 -81 -25 -107 -40 -65 -36 -142 -124 -170 -193
-23 -56 -23 -64 -26 -483 l-3 -426 -44 -43 -45 -44 0 -406 0 -406 45 -44 c58
-57 58 -70 0 -70 l-45 0 0 -130 0 -130 480 0 480 0 0 130 0 130 -45 0 c-30 0
-45 4 -45 13 0 7 20 33 45 57 l45 44 0 406 0 406 -45 44 -44 43 -3 426 c-3
420 -3 427 -26 484 -48 118 -172 217 -299 237 -70 12 -73 12 -148 -5z m188
-95 c75 -28 134 -82 168 -154 28 -58 29 -67 29 -203 l0 -143 -300 0 -300 0 0
143 c0 136 1 145 29 203 67 141 229 208 374 154z m197 -833 l0 -243 45 -44 45
-44 0 -376 0 -376 -45 -44 -46 -45 3 -70 3 -70 43 -3 c42 -3 42 -3 42 -43 l0
-39 -390 0 -390 0 0 39 c0 40 0 40 43 43 l42 3 3 70 3 70 -46 45 -45 44 0 376
0 376 45 44 45 44 0 243 0 243 300 0 300 0 0 -243z"/>
<path d="M388 2233 c-2 -527 -1 -995 0 -1040 l3 -83 -45 0 -46 0 0 -130 0
-130 474 0 474 0 7 115 c4 63 5 121 1 130 -3 10 -19 15 -46 15 l-40 0 0 1040
0 1040 -390 0 -390 0 -2 -957z m692 -38 l0 -905 -305 0 -305 0 0 904 c0 591 3
905 10 908 5 2 143 2 305 0 l295 -3 0 -904z m0 -1085 l0 -90 45 0 45 0 0 -40
0 -40 -390 0 -390 0 0 40 0 40 40 0 40 0 0 83 c0 46 3 87 7 90 3 4 141 7 305
7 l298 0 0 -90z"/>
<path d="M1677 3076 c-32 -13 -65 -30 -75 -37 -43 -33 -86 -78 -113 -120 -47
-74 -59 -129 -59 -281 l0 -138 -45 0 -45 0 0 -638 0 -638 45 -44 c25 -24 45
-50 45 -57 0 -9 -15 -13 -45 -13 l-45 0 0 -130 0 -130 480 0 480 0 0 130 0
130 -45 0 c-58 0 -58 13 0 70 l45 44 -2 636 -3 635 -42 3 -43 3 0 119 c0 192
-29 282 -121 371 -77 75 -144 103 -259 107 -82 2 -103 -1 -153 -22z m269 -91
c66 -29 129 -96 154 -162 16 -44 20 -78 20 -188 l0 -135 -300 0 -300 0 0 143
c0 121 3 149 21 187 30 66 64 106 116 137 97 57 190 63 289 18z m264 -1153 l0
-578 -45 -44 -46 -45 3 -70 3 -70 43 -3 c42 -3 42 -3 42 -43 l0 -39 -390 0
-390 0 0 40 c0 40 0 40 39 40 46 0 51 9 51 86 0 51 -3 58 -45 103 l-45 48 0
577 0 576 390 0 390 0 0 -578z"/>
</g>
</svg>
